name D:\school\WTK\thesis\model\3dpredictsim\Results\Batchsim_tmt_linear\Pog_s1_tmt_bCst_d02_k500_ig24.mot
datacolumns 128
datarows 4
range 1.61468146 1.64697509
endheader
time	pelvis_tilt	pelvis_list	pelvis_rotation	pelvis_tx	pelvis_ty	pelvis_tz	hip_flexion_l	hip_adduction_l	hip_rotation_l	hip_flexion_r	hip_adduction_r	hip_rotation_r	knee_angle_l	knee_angle_r	ankle_angle_l	ankle_angle_r	subtalar_angle_l	subtalar_angle_r	tmt_angle_l	tmt_angle_r	mtp_angle_l	mtp_angle_r	lumbar_extension	lumbar_bending	lumbar_rotation	arm_flex_l	arm_add_l	arm_rot_l	arm_flex_r	arm_add_r	arm_rot_r	elbow_flex_l	elbow_flex_r	pro_sup_l	pro_sup_r	glut_med1_l/activation	glut_med2_l/activation	glut_med3_l/activation	glut_min1_l/activation	glut_min2_l/activation	glut_min3_l/activation	semimem_l/activation	semiten_l/activation	bifemlh_l/activation	bifemsh_l/activation	sar_l/activation	add_long_l/activation	add_brev_l/activation	add_mag1_l/activation	add_mag2_l/activation	add_mag3_l/activation	tfl_l/activation	pect_l/activation	grac_l/activation	glut_max1_l/activation	glut_max2_l/activation	glut_max3_l/activation	iliacus_l/activation	psoas_l/activation	quad_fem_l/activation	gem_l/activation	peri_l/activation	rect_fem_l/activation	vas_med_l/activation	vas_int_l/activation	vas_lat_l/activation	med_gas_l/activation	lat_gas_l/activation	soleus_l/activation	tib_post_l/activation	flex_dig_l/activation	flex_hal_l/activation	tib_ant_l/activation	per_brev_l/activation	per_long_l/activation	per_tert_l/activation	ext_dig_l/activation	ext_hal_l/activation	ercspn_l/activation	intobl_l/activation	extobl_l/activation	glut_med1_r/activation	glut_med2_r/activation	glut_med3_r/activation	glut_min1_r/activation	glut_min2_r/activation	glut_min3_r/activation	semimem_r/activation	semiten_r/activation	bifemlh_r/activation	bifemsh_r/activation	sar_r/activation	add_long_r/activation	add_brev_r/activation	add_mag1_r/activation	add_mag2_r/activation	add_mag3_r/activation	tfl_r/activation	pect_r/activation	grac_r/activation	glut_max1_r/activation	glut_max2_r/activation	glut_max3_r/activation	iliacus_r/activation	psoas_r/activation	quad_fem_r/activation	gem_r/activation	peri_r/activation	rect_fem_r/activation	vas_med_r/activation	vas_int_r/activation	vas_lat_r/activation	med_gas_r/activation	lat_gas_r/activation	soleus_r/activation	tib_post_r/activation	flex_dig_r/activation	flex_hal_r/activation	tib_ant_r/activation	per_brev_r/activation	per_long_r/activation	per_tert_r/activation	ext_dig_r/activation	ext_hal_r/activation	ercspn_r/activation	intobl_r/activation	extobl_r/activation	
          1.61468146	         -2.92923017	          2.09208194	         -5.38784023	          2.01835183	          0.85856425	          0.00224588	         31.77929407	          2.99621806	         -2.15240619	        -17.98115603	         -1.60239963	          7.35898750	        -15.69651378	         -7.20703529	          6.65882354	          0.36275764	         -1.49695672	         11.38916863	          0.07438295	          2.00995935	         -0.11243288	         20.63629327	         -2.03290219	         -0.60019854	          1.83928621	         -7.61238988	        -13.51575421	         10.22418339	          7.83871904	        -13.45826362	         18.13224591	         12.88146554	         34.04183084	         86.51662706	         86.51662706	          0.05897039	          0.05000006	          0.05004659	          0.05000005	          0.05000006	          0.05000017	          0.05897044	          0.05897044	          0.17863252	          0.05000012	          0.05000013	          0.11410171	          0.18706773	          0.15233400	          0.16039428	          0.09462007	          0.05000034	          0.05000597	          0.05897168	          0.05139518	          0.06955025	          0.10428128	          0.05000003	          0.05000004	          0.25506210	          0.05824288	          0.05000032	          0.05000001	          0.10341138	          0.11170451	          0.09063600	          0.05897042	          0.05897012	          0.05897044	          0.05000001	          0.05000033	          0.05000026	          0.49792858	          0.34699030	          0.20370481	          0.25025109	          0.54642601	          0.18944331	          0.06483939	          0.10349220	          0.10447811	          0.30774241	          0.10362131	          0.07998936	          0.33323712	          0.22156709	          0.10924950	          0.05000013	          0.05000002	          0.05000001	          0.07516129	          0.11290417	          0.05668756	          0.05000005	          0.05000004	          0.05000009	          0.05000006	          0.31318217	          0.05000050	          0.05000004	          0.05000025	          0.05000017	          0.05000011	          0.35493539	          0.59365488	          0.05000000	          0.05000003	          0.05000002	          0.18719125	          0.06104715	          0.05000139	          0.05035059	          0.31045055	          0.42036090	          0.29512733	          0.26345558	          0.28486991	          0.35522769	          0.05000000	          0.06862789	          0.16722728	          0.05000002	          0.05000000	          0.05000001	          0.05000000	          0.05000000	          0.05000000	
          1.62544601	         -2.92320525	          2.19702433	         -5.65242168	          2.03450250	          0.85751351	          0.00203454	         31.16621532	          3.40841354	         -1.95154115	        -17.75704027	         -1.90063042	          7.13321535	        -15.60769667	         -9.29492807	          6.04872246	         -0.45950467	         -1.97261610	         12.37747791	          0.07469794	          1.92877316	         -0.09713840	         21.75074031	         -1.84289907	         -0.84003367	          1.91583261	         -8.61855884	        -13.51238383	         10.05322626	          7.63097423	        -13.47384890	         18.27253104	         12.76307670	         35.16178923	         86.51662706	         86.51662706	          0.05000000	          0.05000002	          0.05000002	          0.05000002	          0.05000003	          0.05000002	          0.05000000	          0.05000001	          0.15145936	          0.05000001	          0.05001404	          0.09674498	          0.15861156	          0.31430040	          0.19601774	          0.08022672	          0.05000001	          0.05000087	          0.05000108	          0.05000071	          0.05897047	          0.11725503	          0.05000013	          0.06601823	          0.56630052	          0.15592141	          0.12073382	          0.06955036	          0.22107721	          0.22325801	          0.19076824	          0.05000000	          0.05000000	          0.05000000	          0.05308821	          0.06955020	          0.05441738	          0.56999035	          0.33737112	          0.21347783	          0.40203721	          0.58359146	          0.19569142	          0.05497617	          0.08774920	          0.08858514	          0.26092934	          0.08785867	          0.06782167	          0.28254586	          0.18786281	          0.09263072	          0.05000080	          0.05000011	          0.05000048	          0.06372792	          0.09572947	          0.15565841	          0.11395128	          0.06955061	          0.05401406	          0.06955009	          0.26554162	          0.08389574	          0.06202828	          0.05000033	          0.05000023	          0.05000029	          0.30094342	          0.52017085	          0.05038692	          0.06955001	          0.05897048	          0.15871614	          0.13863653	          0.15871505	          0.12659802	          0.26322551	          0.35641655	          0.25023322	          0.22337934	          0.24153620	          0.30119129	          0.05000000	          0.05818838	          0.14178907	          0.05000000	          0.05000000	          0.05000001	          0.05000000	          0.06955028	          0.05000001	
          1.63621055	         -2.91300860	          2.30414012	         -5.89191485	          2.05094575	          0.85642496	          0.00184346	         30.39015073	          3.75253744	         -1.67452149	        -17.46172335	         -2.19109449	          6.89326008	        -15.94298964	        -11.50644699	          5.47219027	         -1.43514370	         -2.47509969	         13.30417646	         -0.06024797	          1.80791823	         -0.14661801	         22.72632524	         -1.63079958	         -1.08887336	          1.98172340	         -9.64154027	        -13.51573559	          9.91792326	          7.33345457	        -13.48928181	         18.33502987	         12.68495528	         36.26678841	         86.51662706	         86.51662706	          0.30143099	          0.05000001	          0.27968735	          0.05000007	          0.05000005	          0.27597368	          0.08896797	          0.10360461	          0.14593451	          0.05000002	          0.05000006	          0.08202844	          0.20243492	          0.26648976	          0.16620004	          0.11191686	          0.05000014	          0.05898090	          0.14074840	          0.05000001	          0.05000002	          0.09941847	          0.05897044	          0.05897038	          0.48015616	          0.13220301	          0.16281910	          0.05897052	          0.18744744	          0.18929651	          0.16174901	          0.05823358	          0.05897041	          0.05897043	          0.05897041	          0.05897042	          0.05897045	          0.48328472	          0.34093369	          0.18100408	          0.34088030	          0.62512447	          0.16592329	          0.05000000	          0.09674489	          0.07510977	          0.37159390	          0.07449381	          0.05750481	          0.23956565	          0.15928555	          0.07853995	          0.05000029	          0.05000005	          0.05000004	          0.05403378	          0.08116736	          0.16091047	          0.19083961	          0.05897080	          0.05897044	          0.05897039	          0.22514815	          0.08948208	          0.05689893	          0.05544434	          0.05897004	          0.05897039	          0.25516461	          0.49665321	          0.05897043	          0.05897027	          0.05000003	          0.13457260	          0.11754759	          0.13457172	          0.10734026	          0.22318424	          0.30219927	          0.21216831	          0.18939938	          0.20479428	          0.25537477	          0.05000000	          0.05000003	          0.19059892	          0.05000000	          0.05000000	          0.05000001	          0.06119193	          0.05897045	          0.05000097	
          1.64697509	         -2.90024335	          2.40970921	         -6.09882734	          2.06750709	          0.85530881	          0.00164209	         29.47033410	          4.05261197	         -1.39170583	        -17.06592768	         -2.46749233	          6.65069126	        -16.25210375	        -13.87474780	          5.03402627	         -2.52259230	         -2.99197175	         14.16222918	         -0.01982338	          1.64041322	         -0.16333595	         23.46146923	         -1.41447295	         -1.33998978	          2.03810897	        -10.63620708	        -13.52306862	          9.83651619	          6.97238833	        -13.51059471	         18.33514350	         12.61794008	         37.34468938	         86.51662706	         86.51662706	          0.35486488	          0.29666057	          0.36147076	          0.15317380	          0.20176516	          0.23399323	          0.07543438	          0.11057053	          0.12373529	          0.08202819	          0.05000028	          0.06955046	          0.17164098	          0.22595197	          0.14091870	          0.15129390	          0.05000002	          0.05000891	          0.11933816	          0.22095794	          0.16616547	          0.13414005	          0.05000001	          0.05000000	          0.40711590	          0.11209261	          0.13805146	          0.05000006	          0.16107840	          0.22406737	          0.17137736	          0.05000000	          0.05000000	          0.05000000	          0.05000000	          0.05000004	          0.05000002	          0.61247547	          0.37696341	          0.18755560	          0.61626350	          0.66558128	          0.32887888	          0.07334197	          0.08202828	          0.06368424	          0.31506791	          0.06316198	          0.05000000	          0.31068882	          0.13505540	          0.06659263	          0.05000036	          0.05000001	          0.05000001	          0.05000002	          0.06882061	          0.16399592	          0.16180955	          0.05000032	          0.05000013	          0.05000006	          0.19089931	          0.07587357	          0.05000004	          0.05000009	          0.05000006	          0.05000004	          0.21634955	          0.44204378	          0.05000000	          0.05000003	          0.05000002	          0.11410173	          0.10769420	          0.11410149	          0.11410158	          0.18923395	          0.25622940	          0.17989374	          0.16058838	          0.17364145	          0.21652774	          0.11276942	          0.15072642	          0.16719758	          0.05000032	          0.17178675	          0.05000014	          0.08936573	          0.05000000	          0.05000000	
